<?xml version="1.0" encoding="UTF-8"?>
<!DOCTYPE svg PUBLIC "-//W3C//DTD SVG 1.1//EN" "http://www.w3.org/Graphics/SVG/1.1/DTD/svg11.dtd">
<svg xmlns="http://www.w3.org/2000/svg" version="1.1" width="174px" height="128px" style="shape-rendering:geometricPrecision; text-rendering:geometricPrecision; image-rendering:optimizeQuality; fill-rule:evenodd; clip-rule:evenodd" xmlns:xlink="http://www.w3.org/1999/xlink">
<g><path style="opacity:1" fill="#eaecec" d="M 92.5,15.5 C 92.33,16.8221 92.6634,17.9887 93.5,19C 91.5188,19.6054 91.1854,20.6054 92.5,22C 90.5188,22.6054 90.1854,23.6054 91.5,25C 89.9818,29.724 87.9818,34.224 85.5,38.5C 85.7093,39.086 86.0426,39.586 86.5,40C 84.3323,45.0032 82.6656,50.1698 81.5,55.5C 79.1667,55.5 76.8333,55.5 74.5,55.5C 73.586,52.6444 71.9193,50.1444 69.5,48C 62.5079,47.5004 55.5079,47.3337 48.5,47.5C 48.5,55.1667 48.5,62.8333 48.5,70.5C 43.5,69.5 41.5,71.5 42.5,76.5C 41.8485,75.9094 41.1818,75.2427 40.5,74.5C 36.5,77.1667 32.5,79.8333 28.5,82.5C 27.7132,81.7579 27.0465,80.9246 26.5,80C 33.1667,75.6667 39.8333,71.3333 46.5,67C 45.5,66.5 44.5,66 43.5,65.5C 37.5,69.5 31.5,73.5 25.5,77.5C 24.7132,76.7579 24.0465,75.9246 23.5,75C 30.8333,70.3333 38.1667,65.6667 45.5,61C 44.0325,59.9025 43.1992,58.4025 43,56.5C 35.747,61.2095 28.5803,66.0428 21.5,71C 20.0677,71.2703 19.0677,70.6036 18.5,69C 26.1667,64 33.8333,59 41.5,54C 42.3802,52.6439 42.7135,51.1439 42.5,49.5C 33.599,54.2921 24.9324,59.6254 16.5,65.5C 15.7132,64.7579 15.0465,63.9246 14.5,63C 23.8333,57 33.1667,51 42.5,45C 40.5366,40.7262 39.2033,36.5596 38.5,32.5C 37.5734,26.8662 36.9067,21.1995 36.5,15.5C 54.7737,12.1118 73.107,9.11179 91.5,6.5C 91.9629,9.48237 92.2962,12.4824 92.5,15.5 Z"/></g>
<g><path style="opacity:1" fill="#f8f9f8" d="M 144.5,40.5 C 141.758,41.5578 141.091,43.3911 142.5,46C 141.333,46.5 140.5,47.3333 140,48.5C 138.432,53.7138 136.599,58.7138 134.5,63.5C 134.5,62.1667 133.833,61.5 132.5,61.5C 131.432,60.5655 130.099,60.2322 128.5,60.5C 128.737,59.209 128.404,58.209 127.5,57.5C 127.027,56.0937 126.027,55.427 124.5,55.5C 131.123,47.6835 131.123,39.8501 124.5,32C 123.552,31.5172 122.552,31.3505 121.5,31.5C 123.175,29.544 122.842,28.2107 120.5,27.5C 116.554,26.4731 112.554,26.3064 108.5,27C 107.244,27.4169 106.577,28.2502 106.5,29.5C 98.7386,33.3515 96.2386,39.3515 99,47.5C 104.322,45.1291 109.822,43.6291 115.5,43C 110.864,44.8296 106.198,46.6629 101.5,48.5C 102.861,50.8505 104.194,53.1838 105.5,55.5C 97.5,55.5 89.5,55.5 81.5,55.5C 82.6656,50.1698 84.3323,45.0032 86.5,40C 86.0426,39.586 85.7093,39.086 85.5,38.5C 87.9818,34.224 89.9818,29.724 91.5,25C 90.1854,23.6054 90.5188,22.6054 92.5,22C 91.1854,20.6054 91.5188,19.6054 93.5,19C 92.6634,17.9887 92.33,16.8221 92.5,15.5C 93.339,14.3588 94.0057,13.0255 94.5,11.5C 95.3333,11.1667 96.1667,10.8333 97,10.5C 113.164,15.6658 129.331,20.8325 145.5,26C 146.578,26.6739 147.245,27.6739 147.5,29C 146.392,32.8212 145.392,36.6545 144.5,40.5 Z"/></g>
<g><path style="opacity:1" fill="#28e906" d="M 120.5,27.5 C 121.405,28.7024 121.405,30.0357 120.5,31.5C 119.326,32.5137 118.66,33.847 118.5,35.5C 117.094,35.9731 116.427,36.9731 116.5,38.5C 115.764,40.2294 114.43,41.2294 112.5,41.5C 112.008,39.1815 111.008,37.1815 109.5,35.5C 109.008,33.1815 108.008,31.1815 106.5,29.5C 106.577,28.2502 107.244,27.4169 108.5,27C 112.554,26.3064 116.554,26.4731 120.5,27.5 Z"/></g>
<g><path style="opacity:1" fill="#a9f499" d="M 120.5,27.5 C 122.842,28.2107 123.175,29.544 121.5,31.5C 121.167,31.5 120.833,31.5 120.5,31.5C 121.405,30.0357 121.405,28.7024 120.5,27.5 Z"/></g>
<g><path style="opacity:1" fill="#d2d5d8" d="M 106.5,29.5 C 108.008,31.1815 109.008,33.1815 109.5,35.5C 109.461,38.089 110.461,40.089 112.5,41.5C 114.43,41.2294 115.764,40.2294 116.5,38.5C 117.906,38.0269 118.573,37.0269 118.5,35.5C 118.66,33.847 119.326,32.5137 120.5,31.5C 120.833,31.5 121.167,31.5 121.5,31.5C 122.552,31.3505 123.552,31.5172 124.5,32C 131.123,39.8501 131.123,47.6835 124.5,55.5C 118.167,55.5 111.833,55.5 105.5,55.5C 104.194,53.1838 102.861,50.8505 101.5,48.5C 106.198,46.6629 110.864,44.8296 115.5,43C 109.822,43.6291 104.322,45.1291 99,47.5C 96.2386,39.3515 98.7386,33.3515 106.5,29.5 Z"/></g>
<g><path style="opacity:1" fill="#f2f3f2" d="M 38.5,32.5 C 39.2033,36.5596 40.5366,40.7262 42.5,45C 33.1667,51 23.8333,57 14.5,63C 15.0465,63.9246 15.7132,64.7579 16.5,65.5C 24.9324,59.6254 33.599,54.2921 42.5,49.5C 42.7135,51.1439 42.3802,52.6439 41.5,54C 33.8333,59 26.1667,64 18.5,69C 19.0677,70.6036 20.0677,71.2703 21.5,71C 28.5803,66.0428 35.747,61.2095 43,56.5C 43.1992,58.4025 44.0325,59.9025 45.5,61C 38.1667,65.6667 30.8333,70.3333 23.5,75C 24.0465,75.9246 24.7132,76.7579 25.5,77.5C 31.5,73.5 37.5,69.5 43.5,65.5C 44.5,66 45.5,66.5 46.5,67C 39.8333,71.3333 33.1667,75.6667 26.5,80C 27.0465,80.9246 27.7132,81.7579 28.5,82.5C 32.5,79.8333 36.5,77.1667 40.5,74.5C 41.1818,75.2427 41.8485,75.9094 42.5,76.5C 43.4989,85.1583 44.4989,93.825 45.5,102.5C 45.3282,104.548 44.9949,106.548 44.5,108.5C 42.8683,111.073 40.7016,111.739 38,110.5C 26.0905,92.9252 14.5905,75.0919 3.5,57C 14.4543,47.8894 26.121,39.7227 38.5,32.5 Z"/></g>
<g><path style="opacity:1" fill="#acf59c" d="M 118.5,35.5 C 118.573,37.0269 117.906,38.0269 116.5,38.5C 116.427,36.9731 117.094,35.9731 118.5,35.5 Z"/></g>
<g><path style="opacity:1" fill="#9ade8f" d="M 109.5,35.5 C 111.008,37.1815 112.008,39.1815 112.5,41.5C 110.461,40.089 109.461,38.089 109.5,35.5 Z"/></g>
<g><path style="opacity:1" fill="#edeeee" d="M 144.5,40.5 C 151.881,46.2792 159.381,51.9459 167,57.5C 168.368,63.1619 168.535,68.8286 167.5,74.5C 157.104,86.9447 146.937,99.6114 137,112.5C 134.707,115.134 132.54,115.134 130.5,112.5C 131.413,96.1109 132.746,79.7776 134.5,63.5C 136.599,58.7138 138.432,53.7138 140,48.5C 140.5,47.3333 141.333,46.5 142.5,46C 141.091,43.3911 141.758,41.5578 144.5,40.5 Z"/></g>
<g><path style="opacity:1" fill="#1da105" d="M 81.5,55.5 C 89.5,55.5 97.5,55.5 105.5,55.5C 111.833,55.5 118.167,55.5 124.5,55.5C 126.027,55.427 127.027,56.0937 127.5,57.5C 127.5,58.8333 127.5,60.1667 127.5,61.5C 129.167,61.5 130.833,61.5 132.5,61.5C 133.833,61.5 134.5,62.1667 134.5,63.5C 132.746,79.7776 131.413,96.1109 130.5,112.5C 129.448,115.89 128.448,119.39 127.5,123C 101.167,123.667 74.8333,123.667 48.5,123C 47.015,118.661 46.1817,114.161 46,109.5C 45.6174,108.944 45.1174,108.611 44.5,108.5C 44.9949,106.548 45.3282,104.548 45.5,102.5C 44.4989,93.825 43.4989,85.1583 42.5,76.5C 41.5,71.5 43.5,69.5 48.5,70.5C 48.5,62.8333 48.5,55.1667 48.5,47.5C 55.5079,47.3337 62.5079,47.5004 69.5,48C 71.9193,50.1444 73.586,52.6444 74.5,55.5C 76.8333,55.5 79.1667,55.5 81.5,55.5 Z"/></g>
<g><path style="opacity:1" fill="#a9dca0" d="M 127.5,57.5 C 128.404,58.209 128.737,59.209 128.5,60.5C 130.099,60.2322 131.432,60.5655 132.5,61.5C 130.833,61.5 129.167,61.5 127.5,61.5C 127.5,60.1667 127.5,58.8333 127.5,57.5 Z"/></g>
<g><path style="opacity:1" fill="#eaf4e8" d="M 121.5,58.5 C 121.611,59.1174 121.944,59.6174 122.5,60C 104.995,60.1684 87.6618,60.6684 70.5,61.5C 69.5041,61.4142 68.6708,61.7476 68,62.5C 67.3936,65.5478 65.8936,68.0478 63.5,70C 59.5138,70.4988 55.5138,70.6655 51.5,70.5C 51.203,66.2325 51.5363,62.0659 52.5,58C 75.6703,57.1703 98.6703,57.337 121.5,58.5 Z"/></g>
<g><path style="opacity:1" fill="#8dc283" d="M 121.5,58.5 C 123.048,58.8212 123.715,59.8212 123.5,61.5C 105.833,61.5 88.1667,61.5 70.5,61.5C 87.6618,60.6684 104.995,60.1684 122.5,60C 121.944,59.6174 121.611,59.1174 121.5,58.5 Z"/></g>
</svg>
